<svg xmlns="http://www.w3.org/2000/svg" style="width: 1rem;margin-left: -1px;" viewBox="0 0 512 512">
<path fill="white"  class="st0" d="M339.1,325.7C238.3,406.4,127.3,466.9,0,495.1c84.7-150.3,171.3-299,259-448.5c12.8,23.5,25,45.9,37.2,68.4
	c13.8,25.6,28.7,50.7,41,77.1c0.1,0.2,0.3,0.4,0.4,0.7c10.4,17.8,10.3,17.8-4.6,31.4c-9,8.2-18,16.6-26.7,25.1
	c-4,3.9-6.1,4.4-9.1-1.4c-11.3-21.8-23.3-43.2-35-64.8c-0.8-1.5-1.8-3-3.2-5.4c-33.6,64.7-66.9,128.8-100.2,192.9
	c0.3,0.4,0.6,0.7,0.9,1.1c11-6.2,22.1-12.1,33-18.5c53-31.2,101.7-68,145.2-111.5c27.6-27.6,51.9-58,70.1-92.7
	c8.5-16.3,13.8-33.7,15.4-52.5c1.1-12.5-0.1-24.1-5.2-34.8C409,43,392.4,33,372.9,27.7c-29.6-8.1-59.4-5.8-89.1-0.9
	c-30.9,5.1-60.5,14.9-90.3,24.4c6.1-2.7,12.2-5.6,18.4-8.1c6.9-2.8,13.9-5.2,20.8-7.7c44.4-16,89.7-28.5,137-31.8
	c28.6-2,56.7-0.2,83.9,10.1c33.3,12.6,52.8,43.1,50.1,78.9c-2.4,31.8-15.1,59.8-31,86.6c-22.2,37.5-50.7,69.9-81.6,100.4
	c-1.3,1.3-2.4,2.7-3.6,4c-1.3,0.8-2.7,1.4-3.9,2.4C368.9,299.2,354,312.4,339.1,325.7z"></path>
<path fill="67686C" d="M339.1,325.7c14.9-13.2,29.7-26.5,44.7-39.6c1.1-1,2.6-1.6,3.9-2.4c10.2,18.6,20.3,37.1,30.5,55.7
	c18,32.9,36,65.8,54,98.7c12.5,22.7,25,45.4,37.5,68.2c0.7,1.3,1.2,2.8,2.3,5.6c-79.4-28.7-157.8-57-236.2-85.4
	c0.1-0.5,0.2-1,0.3-1.5c39.6,1.8,79.1,3.5,120.3,5.3C376.8,394.5,358,360.1,339.1,325.7z"></path>
</svg>