<svg width="30" height="30" viewBox="0 0 30 30" xmlns="http://www.w3.org/2000/svg">
    <path d="M5.22803 24.8071H24.772C26.2383 24.8071 27.1919 23.8535 27.1919 22.4077V7.81641C27.1919 6.37061 26.2383 5.41699 24.772 5.41699H5.22803C3.76172 5.41699 2.80811 6.37061 2.80811 7.81641V22.4077C2.80811 23.8535 3.76172 24.8071 5.22803 24.8071ZM5.22803 9.44678C4.94092 9.44678 4.74609 9.25195 4.74609 8.99561V8.01123C4.74609 7.71387 4.95117 7.50879 5.24854 7.50879H6.36621C6.64307 7.50879 6.83789 7.71387 6.83789 7.99072V8.99561C6.83789 9.25195 6.64307 9.44678 6.36621 9.44678H5.22803ZM9.0835 14.061C8.74512 14.061 8.51953 13.8457 8.51953 13.5073V8.0625C8.51953 7.73438 8.74512 7.50879 9.0835 7.50879H20.8857C21.2139 7.50879 21.4395 7.73438 21.4395 8.0625V13.5073C21.4395 13.8457 21.2139 14.061 20.8857 14.061H9.0835ZM23.5928 9.44678C23.3159 9.44678 23.1211 9.25195 23.1211 8.99561V7.99072C23.1211 7.71387 23.3159 7.50879 23.5928 7.50879H24.7104C25.0078 7.50879 25.2129 7.71387 25.2129 8.01123V8.99561C25.2129 9.25195 25.0181 9.44678 24.731 9.44678H23.5928ZM5.22803 12.7793C4.94092 12.7793 4.74609 12.564 4.74609 12.3179V11.3232C4.74609 11.0464 4.94092 10.8413 5.22803 10.8413H6.36621C6.64307 10.8413 6.83789 11.0464 6.83789 11.3232V12.3179C6.83789 12.564 6.64307 12.7793 6.36621 12.7793H5.22803ZM23.5928 12.7793C23.3159 12.7793 23.1211 12.564 23.1211 12.3179V11.3232C23.1211 11.0464 23.3159 10.8413 23.5928 10.8413H24.731C25.0181 10.8413 25.2129 11.0464 25.2129 11.3232V12.3179C25.2129 12.564 25.0181 12.7793 24.731 12.7793H23.5928ZM5.22803 16.0708C4.94092 16.0708 4.74609 15.8657 4.74609 15.6094V14.625C4.74609 14.3379 4.94092 14.1431 5.22803 14.1431H6.36621C6.64307 14.1431 6.83789 14.3379 6.83789 14.625V15.6094C6.83789 15.8657 6.64307 16.0708 6.36621 16.0708H5.22803ZM23.5928 16.0708C23.3159 16.0708 23.1211 15.8657 23.1211 15.6094V14.625C23.1211 14.3379 23.3159 14.1431 23.5928 14.1431H24.731C25.0181 14.1431 25.2129 14.3379 25.2129 14.625V15.6094C25.2129 15.8657 25.0181 16.0708 24.731 16.0708H23.5928ZM9.0835 22.7051C8.74512 22.7051 8.51953 22.4795 8.51953 22.1514V16.7271C8.51953 16.3989 8.74512 16.1733 9.0835 16.1733H20.8857C21.2139 16.1733 21.4395 16.3989 21.4395 16.7271V22.1514C21.4395 22.4795 21.2139 22.7051 20.8857 22.7051H9.0835ZM5.22803 19.3828C4.94092 19.3828 4.74609 19.1675 4.74609 18.9214V17.937C4.74609 17.6499 4.94092 17.4551 5.22803 17.4551H6.36621C6.64307 17.4551 6.83789 17.6499 6.83789 17.937V18.9214C6.83789 19.1675 6.64307 19.3828 6.36621 19.3828H5.22803ZM23.5928 19.3828C23.3159 19.3828 23.1211 19.1675 23.1211 18.9214V17.937C23.1211 17.6499 23.3159 17.4551 23.5928 17.4551H24.731C25.0181 17.4551 25.2129 17.6499 25.2129 17.937V18.9214C25.2129 19.1675 25.0181 19.3828 24.731 19.3828H23.5928ZM5.24854 22.7051C4.95117 22.7051 4.74609 22.5 4.74609 22.2026V21.2388C4.74609 20.9619 4.94092 20.7671 5.22803 20.7671H6.36621C6.64307 20.7671 6.83789 20.9619 6.83789 21.2388V22.2334C6.83789 22.5103 6.64307 22.7051 6.36621 22.7051H5.24854ZM23.5928 22.7051C23.3159 22.7051 23.1211 22.5103 23.1211 22.2334V21.2388C23.1211 20.9619 23.3159 20.7671 23.5928 20.7671H24.731C25.0181 20.7671 25.2129 20.9619 25.2129 21.2388V22.2026C25.2129 22.5 25.0078 22.7051 24.7104 22.7051H23.5928Z" />
</svg>