<svg width="30" height="30" viewBox="0 0 30 30" xmlns="http://www.w3.org/2000/svg">
    <path d="M6.74561 21.8335H23.2544C24.3721 21.8335 25.0693 21.1875 25.0693 20.2339C25.0693 19.106 24.126 18.1626 23.1826 17.3013C22.4238 16.604 22.2598 15.1172 22.0854 13.6099C21.8701 10.0005 20.7114 7.396 18.1274 6.46289C17.6763 5.09912 16.5073 4.07373 15 4.07373C13.4824 4.07373 12.3237 5.09912 11.8726 6.46289C9.27832 7.396 8.11963 10.0005 7.9043 13.6099C7.72998 15.1172 7.57617 16.604 6.81738 17.3013C5.86377 18.1626 4.92041 19.106 4.92041 20.2339C4.92041 21.1875 5.62793 21.8335 6.74561 21.8335ZM15 26.1504C16.8765 26.1504 18.2402 24.8276 18.3735 23.2793H11.6162C11.7495 24.8276 13.1235 26.1504 15 26.1504Z"></path>
</svg>