<svg width="30" height="30" viewBox="0 0 30 30" fill="none" xmlns="http://www.w3.org/2000/svg">
    <path d="M15 25.8223C20.8755 25.8223 25.7153 20.9722 25.7153 15.0967C25.7153 9.22119 20.8652 4.38135 15 4.38135C9.12451 4.38135 4.28467 9.22119 4.28467 15.0967C4.28467 20.9722 9.12451 25.8223 15 25.8223ZM15 23.4126C10.396 23.4126 6.70459 19.7007 6.70459 15.0967C6.70459 10.4927 10.3857 6.79102 15 6.79102C19.604 6.79102 23.3057 10.4927 23.3159 15.0967C23.3159 19.7007 19.604 23.4126 15 23.4126ZM11.0317 20.0698L16.6201 17.4858C16.979 17.3218 17.2251 17.0654 17.3892 16.7168L19.9526 11.1387C20.3013 10.3696 19.7476 9.78516 18.958 10.144L13.3799 12.7178C13.0312 12.8716 12.7954 13.1074 12.6211 13.4868L10.0371 19.0752C9.69873 19.8237 10.2832 20.3979 11.0317 20.0698ZM15 16.4399C14.272 16.4399 13.6772 15.8452 13.6772 15.1172C13.6772 14.3892 14.272 13.7944 15 13.7944C15.7383 13.7944 16.333 14.3892 16.333 15.1172C16.333 15.8452 15.7383 16.4399 15 16.4399Z"></path>
</svg>