<svg width="30" height="30" viewBox="0 0 30 30" fill="none" xmlns="http://www.w3.org/2000/svg">
    <path d="M15 25.8223C20.8755 25.8223 25.7153 20.9722 25.7153 15.0967C25.7153 9.22119 20.8652 4.38135 15 4.38135C9.12451 4.38135 4.28467 9.22119 4.28467 15.0967C4.28467 20.9722 9.12451 25.8223 15 25.8223ZM15 18.6855C12.2417 18.6855 10.1089 19.6597 8.98096 20.8389C7.56592 19.3418 6.70459 17.332 6.70459 15.0967C6.70459 10.4927 10.3857 6.79102 15 6.79102C19.604 6.79102 23.3057 10.4927 23.3159 15.0967C23.3159 17.332 22.4443 19.3521 21.0293 20.8389C19.9014 19.6597 17.7686 18.6855 15 18.6855ZM15 17.0552C16.9995 17.0654 18.5479 15.3633 18.5479 13.1689C18.5479 11.0977 16.979 9.35449 15 9.35449C13.021 9.35449 11.4419 11.0977 11.4624 13.1689C11.4624 15.3633 13.0107 17.0449 15 17.0552Z"></path>
</svg>