<svg width="20" height="21" viewBox="0 0 20 21" xmlns="http://www.w3.org/2000/svg">
    <path d="M8.33838 17.4131C9.90723 17.4131 11.3838 16.9619 12.6348 16.1826L16.8594 20.4072C17.1978 20.7456 17.6592 20.9097 18.1309 20.9097C19.1255 20.9097 19.874 20.1304 19.874 19.146C19.874 18.6846 19.7202 18.2437 19.3716 17.895L15.188 13.7012C16.0493 12.4092 16.5415 10.8608 16.5415 9.19971C16.5415 4.68799 12.8501 0.986328 8.33838 0.986328C3.82666 0.986328 0.125 4.67773 0.125 9.19971C0.125 13.7114 3.82666 17.4131 8.33838 17.4131ZM8.33838 14.9111C5.19043 14.9111 2.6167 12.3374 2.6167 9.19971C2.6167 6.06201 5.19043 3.48828 8.33838 3.48828C11.4761 3.48828 14.0498 6.06201 14.0498 9.19971C14.0498 12.3374 11.4761 14.9111 8.33838 14.9111Z" fill="#7F7F7F"></path>
</svg>