<svg width="24" height="23" viewBox="0 0 24 23" xmlns="http://www.w3.org/2000/svg">
    <path d="M11.0669 22.1606H12.9331C13.6201 22.1606 14.1328 21.7402 14.2764 21.084L14.7788 18.9819C15.0864 18.8794 15.3838 18.7563 15.6504 18.6333L17.4858 19.7612C18.0498 20.1099 18.7163 20.0483 19.188 19.5869L20.5005 18.2744C20.9722 17.8027 21.0337 17.1055 20.6646 16.5518L19.5469 14.7266C19.6699 14.4497 19.7827 14.1729 19.875 13.8857L21.9976 13.3833C22.6641 13.2397 23.064 12.7271 23.064 12.04V10.2046C23.064 9.53809 22.6641 9.01514 21.9976 8.87158L19.8955 8.36914C19.793 8.05127 19.6699 7.76416 19.5674 7.51807L20.6851 5.66211C21.0542 5.08789 21.0029 4.42139 20.5107 3.94971L19.1777 2.63721C18.7061 2.20654 18.1011 2.12451 17.5269 2.44238L15.6504 3.60107C15.3838 3.46777 15.0967 3.35498 14.7891 3.24219L14.2764 1.10938C14.1328 0.453125 13.6201 0.0327148 12.9331 0.0327148H11.0669C10.3799 0.0327148 9.86719 0.453125 9.72363 1.11963L9.22119 3.22168C8.91357 3.33447 8.60596 3.44727 8.33936 3.59082L6.47314 2.44238C5.89893 2.12451 5.29395 2.19629 4.81201 2.63721L3.48926 3.94971C2.99707 4.42139 2.9458 5.08789 3.31494 5.66211L4.43262 7.51807C4.33008 7.76416 4.20703 8.05127 4.10449 8.36914L2.00244 8.87158C1.34619 9.01514 0.936035 9.53809 0.936035 10.2046V12.04C0.936035 12.7271 1.34619 13.2397 2.00244 13.3833L4.125 13.8857C4.21729 14.1729 4.33008 14.4497 4.45312 14.7266L3.33545 16.5518C2.96631 17.1055 3.02783 17.8027 3.49951 18.2744L4.81201 19.5869C5.28369 20.0483 5.9502 20.1099 6.51416 19.7612L8.34961 18.6333C8.61621 18.7563 8.91357 18.8794 9.22119 18.9819L9.72363 21.084C9.86719 21.7402 10.3799 22.1606 11.0669 22.1606ZM12 14.6548C10.0415 14.6548 8.44189 13.0552 8.44189 11.0864C8.44189 9.14844 10.0415 7.53857 12 7.53857C13.9585 7.53857 15.5581 9.14844 15.5581 11.0864C15.5581 13.0552 13.9585 14.6548 12 14.6548Z" fill="#7F7F7F"></path>
</svg>